# xmcd
# 
# Track frame offsets:
#     150
#     10725
#     26525
#     42690
#     57777
#     70665
#     86962
#     98277
#     111315
#     120682
# 
# Disc length: 1765
# 
# Revision: 4
# Processed by: cddbd v1.5.2PL0 Copyright (c) Steve Scherf et al.
# Submitted via: BonkEnc v1.0.5
# 
DISCID=7c06e30a
DTITLE=George Strait - If You Ain't Lovin' You Ain't Livin'
DYEAR=1988
DGENRE=Country
TTITLE0=If You Ain't Lovin' (You Ain't Livin')
TTITLE1=Under These Conditions
TTITLE2=Baby Blue
TTITLE3=Don't Mind If I Do
TTITLE4=Bigger Man Than Me
TTITLE5=Famous Last Words Of A Fool
TTITLE6=It's Too Late Now
TTITLE7=Is It That Time Again
TTITLE8=Let's Get Down To It
TTITLE9=Back To Bein' Me
EXTD=
EXTT0=
EXTT1=
EXTT2=
EXTT3=
EXTT4=
EXTT5=
EXTT6=
EXTT7=
EXTT8=
EXTT9=
PLAYORDER=
